<?xml version="1.0" encoding="UTF-8"?>
<!DOCTYPE svg PUBLIC "-//W3C//DTD SVG 1.1//EN" "http://www.w3.org/Graphics/SVG/1.1/DTD/svg11.dtd">
<!-- Creator: CorelDRAW X8 -->
<svg xmlns="http://www.w3.org/2000/svg" xml:space="preserve" width="210mm" height="297mm" version="1.1" style="shape-rendering:geometricPrecision; text-rendering:geometricPrecision; image-rendering:optimizeQuality; fill-rule:evenodd; clip-rule:evenodd"
viewBox="0 0 21000 29700"
 xmlns:xlink="http://www.w3.org/1999/xlink">
 <defs>
  <style type="text/css">
   <![CDATA[
    .fil0 {fill:#666464}
   ]]>
  </style>
 </defs>
 <g id="Camada_x0020_1">
  <metadata id="CorelCorpID_0Corel-Layer"/>
  <g id="_1680202838880">
   <g>
    <path class="fil0" d="M20790 24080l-7472 -7472c2624,-3209 2150,-7938 -1060,-10562 -3209,-2625 -7938,-2150 -10562,1059 -2625,3210 -2150,7939 1059,10563 2765,2261 6739,2261 9503,0l7472 7472c298,287 772,279 1060,-19 280,-290 280,-751 0,-1041zm-13271 -6215c-3310,-4 -5992,-2686 -5996,-5996 0,-3311 2685,-5996 5996,-5996 3311,0 5996,2685 5996,5996 0,3311 -2685,5996 -5996,5996z"/>
   </g>
  </g>
  <g id="_1680202840224">
  </g>
  <g id="_1680202837248">
  </g>
  <g id="_1680202837760">
  </g>
  <g id="_1680202836832">
  </g>
  <g id="_1680202837856">
  </g>
  <g id="_1680202837152">
  </g>
  <g id="_1680202838304">
  </g>
  <g id="_1680202837632">
  </g>
  <g id="_1680202836320">
  </g>
  <g id="_1680202835584">
  </g>
  <g id="_1680202834400">
  </g>
  <g id="_1680202836192">
  </g>
  <g id="_1680202834336">
  </g>
  <g id="_1680202834944">
  </g>
  <g id="_1680202834752">
  </g>
 </g>
</svg>
