<?xml version="1.0" encoding="UTF-8"?>
<!DOCTYPE svg PUBLIC "-//W3C//DTD SVG 1.1//EN" "http://www.w3.org/Graphics/SVG/1.1/DTD/svg11.dtd">
<!-- Creator: CorelDRAW X8 -->
<svg xmlns="http://www.w3.org/2000/svg" xml:space="preserve" width="210mm" height="297mm" version="1.1" style="shape-rendering:geometricPrecision; text-rendering:geometricPrecision; image-rendering:optimizeQuality; fill-rule:evenodd; clip-rule:evenodd"
viewBox="0 0 21000 29700"
 xmlns:xlink="http://www.w3.org/1999/xlink">
 <defs>
  <style type="text/css">
   <![CDATA[
    .fil0 {fill:none}
    .fil1 {fill:#0558FF}
    .fil2 {fill:#2EF248}
    .fil3 {fill:url(#id0)}
   ]]>
  </style>
  <linearGradient id="id0" gradientUnits="userSpaceOnUse" x1="13613.2" y1="25271.6" x2="-1133.73" y2="17624.9">
   <stop offset="0" style="stop-opacity:1; stop-color:#EB1D2B"/>
   <stop offset="0.341176" style="stop-opacity:1; stop-color:#F57416"/>
   <stop offset="1" style="stop-opacity:1; stop-color:#FFCC00"/>
  </linearGradient>
 </defs>
 <g id="Camada_x0020_1">
  <metadata id="CorelCorpID_0Corel-Layer"/>
  <path class="fil0" d="M13998 16157l0 -10382c0,-1694 -1378,-3071 -3071,-3071 -1694,0 -3071,1377 -3071,3071l0 10346c0,1694 1377,3072 3071,3072 1692,0 3071,-1362 3071,-3036z"/>
  <path class="fil1" d="M14649 16258l0 -10969c0,-1789 -1645,-3244 -3669,-3244 -2024,0 -3669,1455 -3669,3244l0 10931c0,1790 1645,3245 3669,3245 2022,0 3669,-1439 3669,-3207z"/>
  <path class="fil0" d="M13998 16157l0 -10382c0,-1694 -1378,-3071 -3071,-3071 -1694,0 -3071,1377 -3071,3071l0 10346c0,1694 1377,3072 3071,3072 1692,0 3071,-1362 3071,-3036z"/>
 </g>
 <g id="Camada_x0020_1_0">
  <metadata id="CorelCorpID_1Corel-Layer"/>
  <g id="_2570530033536">
   <g>
    <path class="fil1" d="M10927 510c-2903,0 -5265,2362 -5265,5265l0 10346c0,2903 2362,5265 5265,5265 2903,0 5265,-2346 5265,-5228l0 -10383c0,-2903 -2362,-5265 -5265,-5265zm3071 15647c0,1674 -1379,3036 -3071,3036 -1694,0 -3071,-1378 -3071,-3072l0 -10346c0,-1694 1377,-3071 3071,-3071 1693,0 3071,1377 3071,3071l0 10382z"/>
   </g>
  </g>
  <g id="_2568398660352">
   <g>
    <rect class="fil2" x="9194" y="24530" width="3466" height="4936"/>
   </g>
  </g>
  <g id="_2568904525072">
   <g>
    <path class="fil3" d="M19226 14293c-605,0 -1097,491 -1097,1097l0 878c0,3971 -3231,7202 -7202,7202 -3972,0 -7203,-3231 -7203,-7202l0 -878c0,-606 -491,-1097 -1096,-1097 -607,0 -1097,491 -1097,1097l0 878c0,5180 4215,9395 9396,9395 5180,0 9396,-4215 9396,-9395l0 -878c0,-606 -491,-1097 -1097,-1097z"/>
   </g>
  </g>
  <g id="_2568904523216">
  </g>
  <g id="_2568904524816">
  </g>
  <g id="_2568904523024">
  </g>
  <g id="_2568908174272">
  </g>
  <g id="_2568908173760">
  </g>
  <g id="_2568908174624">
  </g>
  <g id="_2568908173536">
  </g>
  <g id="_2568908173504">
  </g>
  <g id="_2568908174464">
  </g>
  <g id="_2568908173408">
  </g>
  <g id="_2568908186304">
  </g>
  <g id="_2568908186880">
  </g>
  <g id="_2568908182976">
  </g>
  <g id="_2568908183552">
  </g>
  <g id="_2568908184320">
  </g>
 </g>
</svg>
